<svg xmlns="http://www.w3.org/2000/svg" width="48" height="48" viewBox="0 0 48 48">
  <g fill="none" stroke="black" stroke-width="3" stroke-linecap="round" stroke-linejoin="round">
    <path d="M24 6v-3" />
    <path d="M18 8l-2-2" />
    <path d="M30 8l2-2" />
    <path d="M14 14h-3" />
    <path d="M37 14h-3" />
    <path d="M23 11v16" />
    <path d="M23 27l-3.8-7.5c-.7-1.3-2.5-1-2.8.4l-1.2 6.2c-.4 2 1.1 3.9 3.2 3.9h9.5c2.6 0 4.7-2.1 4.7-4.7v-7c0-1.3-1-2.3-2.3-2.3S27 17.1 27 18.4V24" />
    <path d="M23 11V8.2c0-1.2 1-2.2 2.2-2.2s2.2 1 2.2 2.2V17" />
    <path d="M27.4 15.5v-2.6c0-1.2 1-2.2 2.2-2.2s2.2 1 2.2 2.2V19" />
  </g>
</svg>
